<svg width="24" height="24" viewBox="0 0 24 24" fill="none" xmlns="http://www.w3.org/2000/svg">
<path d="M7.16016 1.5C4.04297 1.5 1.5 4.04297 1.5 7.16016V15.3457C1.5 18.457 4.04297 21 7.16016 21H15.3457C18.457 21 21 18.457 21 15.3398V7.16016C21 4.04297 18.457 1.5 15.3398 1.5H7.16016ZM7.16016 3H15.3398C17.6484 3 19.5 4.85156 19.5 7.16016V15.3398C19.5 17.6484 17.6484 19.5 15.3457 19.5H7.16016C4.85156 19.5 3 17.6484 3 15.3457V7.16016C3 4.85156 4.85156 3 7.16016 3ZM17.25 4.5C16.834 4.5 16.5 4.83398 16.5 5.25C16.5 5.66602 16.834 6 17.25 6C17.666 6 18 5.66602 18 5.25C18 4.83398 17.666 4.5 17.25 4.5ZM11.25 6C8.36133 6 6 8.36133 6 11.25C6 14.1387 8.36133 16.5 11.25 16.5C14.1387 16.5 16.5 14.1387 16.5 11.25C16.5 8.36133 14.1387 6 11.25 6ZM11.25 7.5C13.3301 7.5 15 9.16992 15 11.25C15 13.3301 13.3301 15 11.25 15C9.16992 15 7.5 13.3301 7.5 11.25C7.5 9.16992 9.16992 7.5 11.25 7.5Z" fill="white"/>
</svg>
