<svg width="24" height="24" viewBox="0 0 24 24" fill="none" xmlns="http://www.w3.org/2000/svg">
<path d="M4.13672 1.5C2.68945 1.5 1.5 2.68945 1.5 4.13672V18.3691C1.5 19.8105 2.68945 21 4.13672 21H18.3691C19.8105 21 21 19.8105 21 18.3691V4.13672C21 2.68945 19.8105 1.5 18.3691 1.5H4.13672ZM4.13672 3H18.3691C19.002 3 19.5 3.49805 19.5 4.13672V18.3691C19.5 19.002 19.002 19.5 18.3691 19.5H4.13672C3.49805 19.5 3 19.002 3 18.3691V4.13672C3 3.49805 3.49805 3 4.13672 3ZM6 4.5C5.17383 4.5 4.5 5.17383 4.5 6C4.5 6.82617 5.17383 7.5 6 7.5C6.82617 7.5 7.5 6.82617 7.5 6C7.5 5.17383 6.82617 4.5 6 4.5ZM4.5 9V18H7.5V9H4.5ZM9 9V18H12V13.9805C12 12.7324 12.1172 11.6133 13.6172 11.6133C15.0938 11.6133 15 12.9551 15 14.0625V18H18V13.5586C18 10.9805 17.4609 9 14.5371 9C13.1309 9 12.4219 9.5625 12.0352 10.3125H12V9H9Z" fill="white"/>
</svg>
