<svg width="24" height="24" viewBox="0 0 24 24" fill="none" xmlns="http://www.w3.org/2000/svg">
<path d="M11.25 1.5C5.87109 1.5 1.5 5.87109 1.5 11.25C1.5 13.1953 2.12695 14.9766 3.10547 16.5L1.42969 21.1816L6.64453 19.7109C8.02734 20.4668 9.5625 21 11.25 21C16.6289 21 21 16.6289 21 11.25C21 5.87109 16.6289 1.5 11.25 1.5ZM11.25 3C15.8145 3 19.5 6.68555 19.5 11.25C19.5 15.8145 15.8145 19.5 11.25 19.5C9.68555 19.5 8.23828 19.0605 6.98438 18.3047L6.70898 18.1348L3.82031 18.9434L4.75781 16.3418L4.5293 16.0254C3.56836 14.6719 3 13.0312 3 11.25C3 6.68555 6.68555 3 11.25 3ZM7.59375 6C7.42383 6 7.14258 6.07031 6.90234 6.35156C6.66797 6.62695 6 7.30078 6 8.67188C6 10.0371 6.92578 11.3613 7.05469 11.5488C7.18359 11.7363 8.87695 14.543 11.4668 15.75C12.082 16.0371 12.5625 16.207 12.9375 16.3359C13.5586 16.5469 14.1211 16.5176 14.5664 16.4473C15.0645 16.3652 16.0957 15.7734 16.3125 15.123C16.5234 14.4727 16.5293 13.916 16.459 13.7988C16.4004 13.6816 16.2246 13.6113 15.9668 13.4766C15.709 13.3359 14.4375 12.6621 14.2031 12.5742C13.9688 12.4746 13.793 12.4336 13.6172 12.709C13.4473 12.9902 12.9551 13.6172 12.8027 13.7988C12.6504 13.9863 12.5039 14.0098 12.2461 13.8691C11.9824 13.7285 11.1504 13.4355 10.166 12.4863C9.39844 11.748 8.87695 10.8398 8.73047 10.5586C8.57812 10.2773 8.71289 10.1309 8.8418 9.99609C8.95898 9.86719 9.09961 9.66797 9.22852 9.50391C9.35742 9.3457 9.39844 9.22266 9.48633 9.04102C9.57422 8.85352 9.5332 8.68945 9.46875 8.55469C9.39844 8.41406 8.88281 7.04297 8.67188 6.48633C8.46094 5.94727 8.24414 6.01758 8.08594 6.01172C7.93945 6 7.76367 6 7.59375 6Z" fill="white"/>
</svg>
