<svg width="24" height="24" viewBox="0 0 24 24" fill="none" xmlns="http://www.w3.org/2000/svg">
<path d="M12 3C8.94141 3 6.23438 3.31641 4.58789 3.5625C3.24023 3.76172 2.16797 4.81641 1.92188 6.16992C1.71094 7.35352 1.5 9.08203 1.5 11.25C1.5 13.418 1.71094 15.1465 1.92188 16.3301C2.16797 17.6836 3.24023 18.7324 4.58789 18.9375C6.24023 19.1836 8.95898 19.5 12 19.5C15.041 19.5 17.7539 19.1836 19.4062 18.9375H19.4121C20.7598 18.7383 21.832 17.6836 22.0781 16.3301C22.2891 15.1406 22.5 13.4121 22.5 11.25C22.5 9.08203 22.2891 7.35352 22.0723 6.16992C21.832 4.81641 20.7598 3.76172 19.4121 3.5625C17.7656 3.31641 15.0586 3 12 3ZM12 4.5C14.9531 4.5 17.5957 4.80469 19.1895 5.04492C19.8926 5.15039 20.4609 5.70117 20.5957 6.43359C20.7949 7.54102 21 9.18164 21 11.25C21 13.3184 20.7949 14.959 20.6016 16.0605C20.4668 16.7988 19.8984 17.3496 19.1895 17.4551C17.584 17.6895 14.9355 18 12 18C9.06445 18 6.41016 17.6895 4.81055 17.4551C4.10742 17.3496 3.5332 16.7988 3.39844 16.0605C3.20508 14.9531 3 13.3184 3 11.25C3 9.17578 3.20508 7.54102 3.39844 6.43359C3.5332 5.70117 4.10156 5.15039 4.80469 5.05078H4.81055C6.4043 4.81055 9.04688 4.5 12 4.5ZM9 7.5V15L16.5 11.25L9 7.5Z" fill="white"/>
</svg>
