<svg width="121" height="40" viewBox="0 0 121 40" fill="none" xmlns="http://www.w3.org/2000/svg">
<g clip-path="url(#clip0_318_7120)">
<path d="M38.7198 15.5959L32.2665 26.1498C31.9976 26.5867 31.3254 26.5867 31.0565 26.1498L29.8129 24.0995C29.5776 23.6961 29.0062 23.6289 28.6701 23.9986L20.9395 32.6703C20.3682 33.3089 19.3598 32.5695 19.8304 31.83L28.4012 17.8478C28.6701 17.4109 29.3423 17.4109 29.6112 17.8478L30.5187 19.3603C30.7876 19.7973 31.4598 19.7973 31.7287 19.3603L33.5773 16.3353C33.7118 16.1 33.7118 15.8311 33.5773 15.5959L24.3007 0.336421C24.0318 -0.100523 23.3595 -0.100523 23.0907 0.336421L0.10066 38.0145C-0.20184 38.485 0.167883 39.09 0.70566 39.09H53.0045C53.5423 39.09 53.8784 38.485 53.6095 38.0145L39.9298 15.5959C39.6609 15.1589 38.9887 15.1589 38.7198 15.5959Z" fill="white"/>
<path d="M63.5923 13.7806H61.5756L61.1723 15.125H59.4917L61.71 8.30196H63.4242L65.6425 15.125H63.962L63.5586 13.7806H63.5923ZM61.9117 12.5706H63.2225L62.5839 10.4531L61.9453 12.5706H61.9117Z" fill="white"/>
<path d="M72.5328 13.8814H75.457V15.0914H70.9531V8.26834H72.5328V13.8814Z" fill="white"/>
<path d="M82.7169 12.7386V15.0914H81.1372V8.26834H83.7589C84.5655 8.26834 85.2042 8.47001 85.6747 8.87334C86.1453 9.27667 86.3805 9.81445 86.3805 10.4867C86.3805 11.1589 86.1453 11.6967 85.6747 12.1C85.2042 12.5033 84.5655 12.705 83.7589 12.705H82.7505L82.7169 12.7386ZM82.7169 11.5286H83.7253C84.0614 11.5286 84.3303 11.4278 84.4983 11.2597C84.6664 11.0581 84.7672 10.8228 84.7672 10.5203C84.7672 10.2178 84.6664 9.98251 84.4983 9.78084C84.3303 9.57917 84.0614 9.47834 83.6917 9.47834H82.6833V11.5286H82.7169Z" fill="white"/>
<path d="M93.7413 15.0914H92.1616V8.26834H93.7413V15.0914Z" fill="white"/>
<path d="M105.438 15.0914H103.858L101.371 10.7892V15.0914H99.7915V8.26834H101.371L103.858 12.5706V8.26834H105.438V15.0914Z" fill="white"/>
<path d="M114.984 13.7806H112.967L112.564 15.125H110.883L113.101 8.30196H114.816L117.034 15.125H115.353L114.95 13.7806H114.984ZM113.303 12.5706H114.614L113.975 10.4531L113.337 12.5706H113.303Z" fill="white"/>
<path d="M60.7018 26.7208H60.1304V26.0486H60.7018V26.7208Z" fill="white"/>
<path d="M66.4492 26.7208V20.7381H68.2642C69.0037 20.7381 69.6087 20.9733 70.0792 21.4775C70.5498 21.9481 70.7851 22.5867 70.7851 23.3597V24.1328C70.7851 24.9058 70.5498 25.5108 70.0792 26.015C69.6087 26.5192 69.0037 26.7544 68.2642 26.7544H66.4492V26.7208ZM66.9534 21.175V26.3175H68.2978C68.9028 26.3175 69.3734 26.1158 69.7767 25.7125C70.1801 25.3092 70.3481 24.7714 70.3481 24.1328V23.3597C70.3481 22.7211 70.1464 22.2169 69.7767 21.8136C69.407 21.4103 68.9028 21.2086 68.3314 21.2086H66.987L66.9534 21.175Z" fill="white"/>
<path d="M76.9358 26.7208H76.4316V20.7381H76.9358V26.7208Z" fill="white"/>
<path d="M87.0529 25.9142C86.9184 26.1158 86.6832 26.3175 86.3134 26.5192C85.9437 26.7208 85.5068 26.7881 84.969 26.7881C84.4312 26.7881 83.7254 26.5528 83.2884 26.0822C82.8515 25.6117 82.6162 25.0067 82.6162 24.2336V23.1245C82.6162 22.385 82.8179 21.78 83.2548 21.3095C83.6918 20.8389 84.2295 20.6036 84.9018 20.6036C85.574 20.6036 86.0782 20.7717 86.4479 21.1078C86.8176 21.4439 87.0193 21.8808 87.0193 22.4186H86.5487C86.5487 22.0153 86.4143 21.6792 86.1118 21.4103C85.8429 21.1414 85.4395 21.007 84.9018 21.007C84.364 21.007 83.927 21.2086 83.5909 21.5783C83.2548 21.9817 83.0868 22.4522 83.0868 23.0572V24.1664C83.0868 24.805 83.2548 25.3092 83.5909 25.7125C83.927 26.1158 84.364 26.3175 84.9354 26.3175C85.5068 26.3175 85.7084 26.2503 85.9773 26.1158C86.2462 25.9814 86.4143 25.847 86.5487 25.6789V24.1328H84.9354V23.7295H87.0193V25.847L87.0529 25.9142Z" fill="white"/>
<path d="M93.4053 26.7208H92.9011V20.7381H93.4053V26.7208Z" fill="white"/>
<path d="M103.22 21.175H101.17V26.7208H100.665V21.175H98.5479V20.7717H103.186V21.175H103.22Z" fill="white"/>
<path d="M111.186 25.0739H108.564L107.959 26.7544H107.455L109.639 20.7717H110.11L112.295 26.7544H111.791L111.186 25.0739ZM108.732 24.6369H111.051L109.908 21.4775L108.766 24.6369H108.732Z" fill="white"/>
<path d="M117.908 26.3175H121V26.7208H117.404V20.7381H117.908V26.3175Z" fill="white"/>
</g>
<defs>
<clipPath id="clip0_318_7120">
<rect width="121" height="39.0897" fill="white"/>
</clipPath>
</defs>
</svg>
