<svg width="14" height="15" viewBox="0 0 14 15" fill="none" xmlns="http://www.w3.org/2000/svg">
<path d="M13 10.5H14V14.5H13V10.5ZM11 8.5H12V14.5H11V8.5ZM9 12.5H10V14.5H9V12.5ZM3.5 7.5C2.80777 7.5 2.13108 7.70527 1.55551 8.08986C0.979934 8.47444 0.53133 9.02107 0.266423 9.66061C0.00151649 10.3001 -0.0677952 11.0039 0.0672531 11.6828C0.202301 12.3618 0.535644 12.9854 1.02513 13.4749C1.51461 13.9644 2.13825 14.2977 2.81719 14.4327C3.49612 14.5678 4.19985 14.4985 4.83939 14.2336C5.47894 13.9687 6.02556 13.5201 6.41015 12.9445C6.79473 12.3689 7 11.6922 7 11C6.99894 10.0721 6.62985 9.18244 5.97371 8.5263C5.31756 7.87015 4.42793 7.50106 3.5 7.5V7.5ZM5.9495 10.5H4V8.5505C4.47991 8.64938 4.92032 8.88673 5.2668 9.2332C5.61327 9.57968 5.85062 10.0201 5.9495 10.5V10.5ZM3.5 13.5C2.88045 13.5 2.28297 13.27 1.82339 12.8545C1.36381 12.439 1.07488 11.8677 1.01261 11.2513C0.950341 10.6349 1.11917 10.0173 1.48637 9.51828C1.85357 9.01928 2.39297 8.6744 3 8.5505V10.5C3 10.7652 3.10536 11.0196 3.29289 11.2071C3.48043 11.3946 3.73478 11.5 4 11.5H5.9495C5.83356 12.0643 5.52661 12.5713 5.08041 12.9356C4.63421 13.2999 4.07604 13.4993 3.5 13.5V13.5ZM10.2675 5.5L12.2675 2.5H14V1.5H11.7325L9.7325 4.5H8V0.5H7V6.5C7 6.76522 7.10536 7.01957 7.29289 7.20711C7.48043 7.39464 7.73479 7.5 8 7.5H14V6.5H8V5.5H10.2675Z" fill="#191919"/>
</svg>
